<?xml version="1.0" encoding="utf-8"?>
<!-- Generator: Adobe Illustrator 27.0.0, SVG Export Plug-In . SVG Version: 6.00 Build 0)  -->
<svg version="1.1" id="Layer_1" xmlns="http://www.w3.org/2000/svg" xmlns:xlink="http://www.w3.org/1999/xlink" x="0px" y="0px"
	 viewBox="0 0 450 191.167" enable-background="new 0 0 450 191.167" xml:space="preserve">
<g>
	<path fill="#EB1C24" d="M317.281,51.972c17.446,44.267,34.83,88.376,52.321,132.755c-14.444,0-28.434,0-42.904,0
		c4.005-7.835,7.909-15.473,12.027-23.53c-27.921,0-55.234,0-83.087,0c4.172,7.891,8.189,15.49,12.4,23.456
		c-14.487,0-28.452,0-43.085,0c17.516-44.314,34.959-88.444,52.445-132.682C290.678,51.972,303.799,51.972,317.281,51.972z
		 M318.399,143.374c-6.939-19.017-13.764-37.724-20.894-57.265c-8.732,24.698-17.124,48.435-25.711,72.722
		C287.74,153.543,302.862,148.527,318.399,143.374z"/>
	<path d="M8.122,176.2c0-56.292,0-112.362,0-168.426c1.315-1.046,2.733-0.532,4.447-0.47c2.529,3.829,5.152,7.799,7.773,11.77
		c0.718,1.088,0.463,2.314,0.464,3.493c0.004,14.128-0.02,28.257,0.013,42.385c0.003,1.125-0.345,2.339,0.465,3.671
		c3.627-3.551,7.222-6.93,11.396-9.637c24.732-16.041,59.612-6.526,74.046,16.806c9.345,15.105,11.611,31.323,9.885,48.478
		c-1.414,14.054-5.495,27.157-14.201,38.579c-9.329,12.239-21.857,18.99-36.827,21.323c-19.263,3.001-37.905,0.508-55.848-7.127
		C9.239,176.834,8.776,176.545,8.122,176.2z M20.751,167.024c0.87,0.943,2.097,1.172,3.208,1.506
		c16.257,4.893,32.524,5.192,48.679-0.356c9.768-3.355,17.949-9.257,23.111-18.164c9.634-16.626,12.842-34.605,7.619-53.308
		C99.476,82.767,91.36,71.565,77.591,65.731c-20.086-8.511-42.945-1.099-56.84,18.249C20.751,111.429,20.751,139.222,20.751,167.024
		z"/>
	<path d="M238.374,115.557c-0.01,22.653-5.742,40.198-20.01,54.286c-22.462,22.178-58.243,20.82-79.308-2.848
		c-13.507-15.175-18.186-33.224-17.244-53.076c0.758-15.974,5.649-30.367,16.145-42.72c23.485-27.637,64.206-26.601,86.147,2.234
		C234.253,86.771,238.369,101.975,238.374,115.557z M225.414,118.832c0.154-11.32-2.277-21.972-8.049-31.784
		c-17.242-29.316-53.874-28.499-71.488-4.972c-15.715,20.99-15.082,54.913,1.878,74.901c16.435,19.37,44.817,20.38,62.513,2.199
		C221.203,147.941,225.336,134.138,225.414,118.832z"/>
	<path d="M435.699,62.472c-14.257,0-28.265,0-42.464,0c0,1.188,0,2.153,0,3.118c0.003,25.427-0.03,50.854,0.034,76.281
		c0.016,6.513,0.346,13.015,1.76,19.427c1.128,5.114,4.155,8.152,9.217,9.347c10.956,2.588,21.577,0.992,32.056-2.471
		c2.341-0.773,4.659-1.617,7.227-2.512c0,4.512,0,8.706,0,13.202c-11.767,5.007-24.023,7.711-36.98,6.463
		c-5.455-0.525-10.636-2.018-15.463-4.709c-9.268-5.165-13.96-12.877-13.927-23.603c0.092-30.208,0.033-60.416,0.034-90.625
		c0-1.179,0-2.358,0-3.936c-13.445,0-26.716,0-40.823,0c4.706-4.147,8.741-7.702,12.961-11.42c9.084,0,18.305,0,27.754,0
		c0-10.61,0-21.008,0-31.336c3.753-4.193,7.369-8.233,10.976-12.264c1.642-0.35,3.239-0.309,5.131,0.012c0,14.417,0,28.814,0,43.572
		c14.375,0,28.458,0,42.508,0C435.699,55.013,435.699,58.636,435.699,62.472z"/>
</g>
<g>
</g>
<g>
</g>
<g>
</g>
<g>
</g>
<g>
</g>
<g>
</g>
<g>
</g>
<g>
</g>
<g>
</g>
<g>
</g>
<g>
</g>
<g>
</g>
<g>
</g>
<g>
</g>
<g>
</g>
</svg>
